<svg xmlns="http://www.w3.org/2000/svg" viewBox="0 0 604 126" width="604" height="126">
	<style>
		tspan { white-space:pre }
		.shp0 { fill: #ffffff } 
		.shp1 { fill: #673ab7 } 
	</style>
	<g id="Layer">
		<g id="Layer">
			<path id="Layer" class="shp0" d="M168.67 40.77L180.51 40.77L180.51 118.08L168.67 118.08L168.67 40.77Z" />
			<path id="Layer" class="shp0" d="M137.05 8.03L233.55 8.03L233.55 19.87L137.05 19.87L137.05 8.03Z" />
			<path id="Layer" class="shp0" d="M190.06 40.77L201.9 40.77L201.9 118.08L190.06 118.08L190.06 40.77Z" />
		</g>
		<g id="Layer">
			<path id="Layer" class="shp0" d="M528.99 118.16L540.94 118.16L540.94 71.6L528.99 58.32L528.99 118.16Z" />
			<path id="Layer" class="shp0" d="M591.9 8.03L591.9 94.35L507.39 0.43L507.39 118.16L519.31 118.16L519.31 31.81L603.87 125.76L603.87 8.03L591.9 8.03Z" />
		</g>
		<g id="Layer">
			<path id="Layer" fill-rule="evenodd" class="shp0" d="M485.1 63.04C485.1 93.41 460.41 118.11 430.03 118.11C399.66 118.11 374.97 93.41 374.97 63.04C374.97 32.67 399.66 7.97 430.03 7.97C460.41 7.97 485.1 32.69 485.1 63.04ZM473.23 63.04C473.23 39.2 453.85 19.84 430.03 19.84C406.19 19.84 386.83 39.2 386.83 63.04C386.83 86.88 406.22 106.24 430.03 106.24C453.85 106.24 473.23 86.85 473.23 63.04Z" />
			<path id="Layer" class="shp0" d="M430.03 55.12C425.66 55.12 422.11 58.67 422.11 63.04C422.11 67.41 425.66 70.96 430.03 70.96C434.41 70.96 437.95 67.41 437.95 63.04C437.95 58.67 434.41 55.12 430.03 55.12Z" />
		</g>
		<path id="Layer" class="shp0" d="M354.25 41.81C354.25 23.2 339.21 8.05 320.73 8.05L257.74 8.05L257.74 118.19L269.5 118.19L269.5 20L320.73 20C332.59 20 342.25 29.79 342.25 41.81C342.25 53.79 332.73 63.52 320.97 63.65L279.18 63.63L279.18 118.19L290.94 118.19L290.94 75.57L318.49 75.57L340.99 118.16L354.67 118.16L331.18 73.89C344.75 69.39 354.25 56.27 354.25 41.81Z" />
	</g>
	<path id="Layer" class="shp1" d="M56.43 120.53C25.31 120.53 0.15 95.38 0.15 64.25C0.15 33.13 25.31 7.97 56.43 7.97C87.56 7.97 112.72 33.13 112.72 64.25C112.72 95.38 87.56 120.53 56.43 120.53Z" />
	<path id="Layer" fill-rule="evenodd" class="shp0" d="M94.64 55.46L54.46 104.42L25.61 31.85L80.42 41.93L94.64 55.46ZM65 58.5L87.94 54.35L79.55 46.38L65 58.5ZM75.35 44.89L35.85 37.63L60.02 57.67L75.35 44.89ZM33.11 40.32L54.36 93.8L58.29 61.22L33.11 40.32ZM58.21 93.83L87.33 58.35L61.94 62.95L58.21 93.83Z" />
</svg>