<svg xmlns="http://www.w3.org/2000/svg" viewBox="0 0 381 381" width="381" height="381">
	<style>
		tspan { white-space:pre }
		.shp0 { fill: #673ab7 } 
		.shp1 { fill: #ffffff } 
	</style>
	<path id="Layer" class="shp0" d="M190.49 380.98C85.15 380.98 0 295.83 0 190.49C0 85.15 85.15 0 190.49 0C295.83 0 380.98 85.15 380.98 190.49C380.98 295.83 295.83 380.98 190.49 380.98Z" />
	<path id="Layer" fill-rule="evenodd" class="shp1" d="M324.82 158.88L182.98 331.71L81.17 75.56L274.63 111.15L324.82 158.88ZM220.21 169.62L301.16 154.96L271.55 126.83L220.21 169.62ZM256.73 121.59L117.31 95.94L202.62 166.7L256.73 121.59ZM107.63 105.46L182.63 294.23L196.52 179.23L107.63 105.46ZM196.23 294.32L299 169.07L209.38 185.31L196.23 294.32Z" />
</svg>